<?xml version="1.0" encoding="UTF-8"?>
<svg width="20px" height="20px" viewBox="0 0 20 20" version="1.1" xmlns="http://www.w3.org/2000/svg" xmlns:xlink="http://www.w3.org/1999/xlink">
    <!-- Generator: Sketch 52.5 (67469) - http://www.bohemiancoding.com/sketch -->
    <title>tianjiapengyou</title>
    <desc>Created with Sketch.</desc>
    <g id="Page-1" stroke="none" stroke-width="1" fill="none" fill-rule="evenodd">
        <g id="聊天-copy-2" transform="translate(-270.000000, -116.000000)" fill="#FFFFFF">
            <g id="tianjiapengyou" transform="translate(270.000000, 116.000000)">
                <path d="M14.8150481,14.573579 C13.9962211,12.857045 8.10805449,12.9857989 10.3516311,10.3723755 C11.0861407,9.50910942 11.8605871,8.34293649 11.8605871,7.09335308 C11.8605871,4.83534531 10.3579262,3 8.5097935,3 C6.66343821,3 5.1571669,4.83534531 5.1571669,7.09335308 C5.1571669,8.34293649 5.63055905,9.18079985 6.57634354,10.3506203 C8.13614179,12.6529902 3.03606717,12.8216441 2.26526818,14.4639141 C2.03675575,14.9517497 1.99680032,15.3299389 2.00041075,15.7660618 C2.00041075,15.8223107 1.9950414,15.8802999 2.02312869,15.9265321 C2.05121598,15.9719311 2.09476332,16 2.14195812,16 L14.8595027,16 C14.9048645,16 14.9492635,15.9719126 14.9764806,15.9265321 C15.0045679,15.8802999 14.9991615,15.8231809 14.9991615,15.7660618 C15.0082709,15.2781892 14.9429129,14.8411035 14.8150481,14.5735975 L14.8150481,14.573579 Z" id="路径"></path>
                <path d="M17.5833516,10.0833288 L15.9167582,10.0833288 L15.9167582,8.41688176 C15.9167582,8.18635473 15.7296042,8 15.5001281,8 C15.2700297,8 15.0834981,8.18635473 15.0834981,8.41688176 L15.0834981,10.0833288 L13.416868,10.0833288 C13.1865866,10.0833288 13,10.2696835 13,10.5003936 C13,10.7298955 13.1865683,10.9170923 13.416868,10.9170923 L15.0834981,10.9170923 L15.0834981,12.5837406 C15.0834981,12.813627 15.2700297,13 15.5001281,13 C15.7296042,13 15.9167582,12.8136453 15.9167582,12.5837406 L15.9167582,10.9170923 L17.5833699,10.9170923 C17.8136514,10.9170923 18,10.7299138 18,10.5003936 C18.0000183,10.2697018 17.8136514,10.0833288 17.5833699,10.0833288 L17.5833516,10.0833288 Z" id="路径"></path>
            </g>
        </g>
    </g>
</svg>